# xmcd CD database file
#
# Track frame offsets:
#	150
#	15290
#	29302
#	44597
#	62532
#	76892
#	97177
#	113775
#	126730
#	144215
#	167052
#
# Disc length: 2473 seconds
#
# Revision: 13
# Processed by: cddbd v1.5.2PL0 Copyright (c) Steve Scherf et al.
# Submitted via: CDex 1.79
#
DISCID=8d09a70b
DTITLE=Clay Walker - Live, Laugh, Love
DYEAR=1999
DGENRE=Country
TTITLE0=She's Always Right
TTITLE1=Lonse Some Sleep Tonight
TTITLE2=Holding Her And Loving You
TTITLE3=Cold Hearted
TTITLE4=If A Man Ain't Thinking (`Bout His Woman)
TTITLE5=Once In A Lifetime Love
TTITLE6=It Ain't Called Heartland (For Nothin`)
TTITLE7=Woman Thing
TTITLE8=This Time Love
TTITLE9=The Chain Of Love
TTITLE10=Live, Laugh, Love
EXTD=more info\nMillenniumMusicProjectFormat, syntax as follows:\nTitle{Subtitle}[info](Lyricist;Com YEAR: 1999
EXTT0=
EXTT1=
EXTT2=
EXTT3=
EXTT4=
EXTT5=
EXTT6=
EXTT7=
EXTT8=
EXTT9=
EXTT10=
PLAYORDER=
